<svg width="21" height="4" viewBox="0 0 21 4" fill="none" xmlns="http://www.w3.org/2000/svg">
<path d="M4.3 3.486C4.312 3.486 4.324 3.486 4.336 3.486V3.516C4.28 3.524 4.217 3.528 4.147 3.528C4.079 3.528 3.994 3.513 3.892 3.483C3.792 3.453 3.701 3.397 3.619 3.315C3.451 3.147 3.349 2.929 3.313 2.661L3.13 1.326L2.506 2.736C2.45 2.858 2.416 2.96 2.404 3.042H2.374L1.597 1.353L1.465 2.844C1.461 2.878 1.471 2.908 1.495 2.934C1.521 2.96 1.549 2.973 1.579 2.973H1.627V3H1.045V2.97H1.093C1.147 2.97 1.194 2.954 1.234 2.922C1.276 2.888 1.302 2.844 1.312 2.79L1.501 1.152C1.325 0.806 1.114 0.633 0.868 0.633C0.846 0.633 0.823 0.634 0.799 0.636V0.606C0.853 0.592 0.897 0.585 0.931 0.585C0.965 0.585 1.002 0.587 1.042 0.591C1.082 0.593 1.129 0.602 1.183 0.618C1.237 0.634 1.288 0.658 1.336 0.69C1.384 0.72 1.426 0.752 1.462 0.786C1.498 0.818 1.532 0.854 1.564 0.894C1.618 0.966 1.661 1.035 1.693 1.101L2.416 2.667L3.223 0.858H3.25L3.529 2.634C3.571 2.914 3.661 3.126 3.799 3.27C3.939 3.414 4.106 3.486 4.3 3.486ZM4.14899 0.798C4.27899 0.744 4.40399 0.717 4.52399 0.717C4.62399 0.717 4.72699 0.754 4.83299 0.828C4.89099 0.868 4.95599 0.946 5.02799 1.062C5.07599 1.142 5.13699 1.287 5.21099 1.497L5.57699 2.535C5.66099 2.767 5.74599 2.951 5.83199 3.087C5.91999 3.225 5.99999 3.328 6.07199 3.396C6.14399 3.466 6.21899 3.515 6.29699 3.543C6.37499 3.571 6.43899 3.585 6.48899 3.585C6.54099 3.585 6.58699 3.581 6.62699 3.573L6.62999 3.603C6.53399 3.635 6.43999 3.651 6.34799 3.651C6.25599 3.651 6.16399 3.627 6.07199 3.579C5.97999 3.533 5.89399 3.468 5.81399 3.384C5.64199 3.21 5.49599 2.945 5.37599 2.589L5.25899 2.247H4.43699L4.22999 2.781C4.21999 2.805 4.21499 2.829 4.21499 2.853C4.21499 2.877 4.22499 2.903 4.24499 2.931C4.26699 2.957 4.29999 2.97 4.34399 2.97H4.36799V3H3.76499V2.97H3.79199C3.83999 2.97 3.88699 2.956 3.93299 2.928C3.97899 2.898 4.01699 2.854 4.04699 2.796L4.79099 1.014C4.68299 0.86 4.54899 0.783 4.38899 0.783C4.31699 0.783 4.23999 0.798 4.15799 0.828L4.14899 0.798ZM4.46999 2.157H5.22899L4.99199 1.458C4.94599 1.324 4.90399 1.219 4.86599 1.143L4.46999 2.157ZM6.61914 3.057C7.04514 3.205 7.36414 3.305 7.57614 3.357C7.79014 3.411 7.97314 3.438 8.12514 3.438C8.27914 3.438 8.44814 3.403 8.63214 3.333L8.64714 3.357C8.40314 3.525 8.15714 3.609 7.90914 3.609C7.65514 3.609 7.36614 3.53 7.04214 3.372C6.79214 3.248 6.63714 3.173 6.57714 3.147C6.36314 3.051 6.18714 3.002 6.04914 3V2.97H6.08814C6.14014 2.97 6.18414 2.952 6.22014 2.916C6.25814 2.88 6.27814 2.835 6.28014 2.781V1.119C6.27814 1.067 6.25814 1.023 6.22014 0.987C6.18414 0.949 6.14014 0.93 6.08814 0.93H6.04914V0.9H6.70614V0.93H6.66714C6.61514 0.93 6.57014 0.949 6.53214 0.987C6.49414 1.023 6.47514 1.067 6.47514 1.119V2.85C6.47514 2.886 6.47714 2.914 6.48114 2.934C6.48514 2.952 6.49814 2.973 6.52014 2.997C6.54214 3.021 6.57514 3.041 6.61914 3.057ZM7.43024 0.798C7.56024 0.744 7.68524 0.717 7.80524 0.717C7.90524 0.717 8.00824 0.754 8.11424 0.828C8.17224 0.868 8.23724 0.946 8.30924 1.062C8.35724 1.142 8.41824 1.287 8.49224 1.497L8.85824 2.535C8.94224 2.767 9.02724 2.951 9.11324 3.087C9.20124 3.225 9.28124 3.328 9.35324 3.396C9.42524 3.466 9.50024 3.515 9.57824 3.543C9.65624 3.571 9.72024 3.585 9.77024 3.585C9.82224 3.585 9.86824 3.581 9.90824 3.573L9.91124 3.603C9.81524 3.635 9.72124 3.651 9.62924 3.651C9.53724 3.651 9.44524 3.627 9.35324 3.579C9.26124 3.533 9.17524 3.468 9.09524 3.384C8.92324 3.21 8.77724 2.945 8.65724 2.589L8.54024 2.247H7.71824L7.51124 2.781C7.50124 2.805 7.49624 2.829 7.49624 2.853C7.49624 2.877 7.50624 2.903 7.52624 2.931C7.54824 2.957 7.58124 2.97 7.62524 2.97H7.64924V3H7.04624V2.97H7.07324C7.12124 2.97 7.16824 2.956 7.21424 2.928C7.26024 2.898 7.29824 2.854 7.32824 2.796L8.07224 1.014C7.96424 0.86 7.83024 0.783 7.67024 0.783C7.59824 0.783 7.52124 0.798 7.43924 0.828L7.43024 0.798ZM7.75124 2.157H8.51024L8.27324 1.458C8.22724 1.324 8.18524 1.219 8.14724 1.143L7.75124 2.157ZM12.3154 3.456C12.1554 3.506 12.0114 3.515 11.8834 3.483C11.7494 3.447 11.6334 3.391 11.5354 3.315C11.4414 3.239 11.3454 3.148 11.2474 3.042L9.66639 1.29V2.79C9.66839 2.86 9.69939 2.912 9.75939 2.946C9.78739 2.962 9.81739 2.97 9.84939 2.97H9.90639V3H9.28839V2.97H9.34539C9.39539 2.97 9.43839 2.953 9.47439 2.919C9.51039 2.883 9.52839 2.839 9.52839 2.787V1.14C9.51839 1.126 9.49839 1.1 9.46839 1.062C9.43839 1.022 9.41339 0.99 9.39339 0.966C9.37339 0.942 9.34639 0.911 9.31239 0.873C9.27839 0.833 9.24639 0.801 9.21639 0.777C9.18839 0.753 9.15539 0.725 9.11739 0.693C9.05739 0.647 8.99339 0.614 8.92539 0.594C8.85739 0.574 8.80039 0.564 8.75439 0.564C8.70639 0.564 8.65539 0.572 8.60139 0.588L8.58939 0.558C8.68539 0.518 8.77839 0.498 8.86839 0.498C8.95639 0.498 9.03239 0.509 9.09639 0.531C9.16039 0.551 9.22939 0.588 9.30339 0.642C9.37739 0.696 9.43739 0.746 9.48339 0.792C9.53139 0.838 9.58839 0.898 9.65439 0.972L11.1664 2.652V1.113C11.1644 1.061 11.1454 1.018 11.1094 0.984C11.0734 0.948 11.0304 0.93 10.9804 0.93H10.9234V0.9H11.5414V0.93H11.4874C11.4374 0.93 11.3944 0.948 11.3584 0.984C11.3224 1.018 11.3034 1.06 11.3014 1.11V2.805C11.3214 2.827 11.3494 2.86 11.3854 2.904C11.4234 2.948 11.4494 2.979 11.4634 2.997C11.4794 3.015 11.5024 3.041 11.5324 3.075C11.5624 3.109 11.5874 3.135 11.6074 3.153C11.6294 3.173 11.6554 3.197 11.6854 3.225C11.7174 3.255 11.7464 3.278 11.7724 3.294C11.8004 3.312 11.8314 3.332 11.8654 3.354C11.9134 3.382 11.9674 3.403 12.0274 3.417C12.0894 3.431 12.1394 3.438 12.1774 3.438C12.2174 3.438 12.2594 3.434 12.3034 3.426L12.3154 3.456ZM14.5213 3.522C14.2673 3.522 14.0593 3.441 13.8973 3.279C13.7773 3.159 13.6983 3.008 13.6603 2.826C13.4703 2.97 13.2373 3.042 12.9613 3.042C12.7433 3.042 12.5443 2.995 12.3643 2.901C12.1863 2.805 12.0463 2.674 11.9443 2.508C11.8443 2.342 11.7943 2.155 11.7943 1.947C11.7943 1.739 11.8443 1.552 11.9443 1.386C12.0463 1.218 12.1863 1.088 12.3643 0.996C12.5423 0.904 12.7413 0.858 12.9613 0.858C13.2373 0.858 13.4803 0.926 13.6903 1.062L13.7503 1.485H13.7233C13.6633 1.253 13.5273 1.095 13.3153 1.011C13.2113 0.969 13.0933 0.948 12.9613 0.948C12.6913 0.948 12.4663 1.042 12.2863 1.23C12.1083 1.418 12.0193 1.657 12.0193 1.947C12.0193 2.235 12.1093 2.474 12.2893 2.664C12.4693 2.854 12.6933 2.95 12.9613 2.952C13.0913 2.952 13.2153 2.929 13.3333 2.883C13.4513 2.837 13.5523 2.773 13.6363 2.691V2.16C13.6363 2.116 13.6233 2.083 13.5973 2.061C13.5713 2.037 13.5343 2.025 13.4863 2.025H13.4383V1.995H14.0263V2.025H13.9813C13.9313 2.025 13.8933 2.037 13.8673 2.061C13.8413 2.083 13.8293 2.116 13.8313 2.16V2.622C13.8433 2.938 13.9463 3.164 14.1403 3.3C14.2763 3.396 14.4523 3.444 14.6683 3.444C14.7583 3.444 14.8563 3.435 14.9623 3.417L14.9653 3.447C14.8053 3.497 14.6573 3.522 14.5213 3.522ZM14.8714 0.741L14.8504 0.762C14.6884 0.686 14.5274 0.601 14.3674 0.507C14.3954 0.451 14.4364 0.398 14.4904 0.348C14.6164 0.47 14.7434 0.601 14.8714 0.741ZM17.8607 1.947C17.8607 2.291 17.7677 2.56 17.5817 2.754C17.3977 2.946 17.1367 3.042 16.7987 3.042C16.5707 3.042 16.3647 2.994 16.1807 2.898C15.9987 2.802 15.8567 2.671 15.7547 2.505C15.6547 2.339 15.6047 2.154 15.6047 1.95C15.6047 1.744 15.6547 1.558 15.7547 1.392C15.8547 1.226 15.9927 1.096 16.1687 1.002C16.3447 0.906 16.5407 0.858 16.7567 0.858C16.8927 0.858 17.0307 0.877 17.1707 0.915C17.3127 0.951 17.4307 1 17.5247 1.062L17.5847 1.485H17.5577C17.5157 1.317 17.4187 1.186 17.2667 1.092C17.1147 0.996 16.9457 0.948 16.7597 0.948C16.4937 0.948 16.2717 1.043 16.0937 1.233C15.9177 1.421 15.8297 1.658 15.8297 1.944C15.8297 2.23 15.9207 2.47 16.1027 2.664C16.2867 2.856 16.5267 2.952 16.8227 2.952C17.1187 2.952 17.3597 2.856 17.5457 2.664C17.7337 2.472 17.8277 2.209 17.8277 1.875H17.8577C17.8597 1.899 17.8607 1.923 17.8607 1.947ZM20.5946 0.384C20.6106 0.384 20.6276 0.384 20.6456 0.384V0.414C20.4256 0.414 20.2516 0.487 20.1236 0.633C19.9956 0.777 19.9316 0.986 19.9316 1.26V2.259C19.9316 2.493 19.8576 2.682 19.7096 2.826C19.5616 2.97 19.3646 3.042 19.1186 3.042C18.8726 3.042 18.6726 2.971 18.5186 2.829C18.3666 2.685 18.2906 2.496 18.2906 2.262V1.077C18.2906 1.019 18.2646 0.976 18.2126 0.948C18.1886 0.936 18.1616 0.93 18.1316 0.93H18.0836V0.9H18.6926V0.93H18.6446C18.6006 0.93 18.5636 0.944 18.5336 0.972C18.5036 0.998 18.4876 1.032 18.4856 1.074V2.22C18.4856 2.438 18.5436 2.614 18.6596 2.748C18.7776 2.88 18.9316 2.946 19.1216 2.946C19.3236 2.946 19.4856 2.883 19.6076 2.757C19.7296 2.631 19.7906 2.465 19.7906 2.259V1.263C19.7906 0.969 19.8646 0.749 20.0126 0.603C20.1626 0.457 20.3566 0.384 20.5946 0.384Z" fill="white"/>
</svg>
